<?xml version="1.0" standalone="no"?>
<!DOCTYPE svg PUBLIC "-//W3C//DTD SVG 20010904//EN"
 "http://www.w3.org/TR/2001/REC-SVG-20010904/DTD/svg10.dtd">
<svg version="1.0" xmlns="http://www.w3.org/2000/svg"
 width="1024.000000pt" height="1024.000000pt" viewBox="0 0 1024.000000 1024.000000"
 preserveAspectRatio="xMidYMid meet">
<metadata>
Created by potrace 1.14, written by Peter Selinger 2001-2017
</metadata>
<g transform="translate(0.000000,1024.000000) scale(0.100000,-0.100000)"
fill="#000000" stroke="none">
<path d="M2040 6926 c-3 -2 -34 -7 -68 -11 -71 -7 -71 -7 -167 -29 -364 -84
-702 -291 -953 -582 -59 -69 -183 -256 -225 -339 -40 -78 -105 -237 -111 -269
-2 -12 -9 -33 -15 -48 -13 -35 -49 -223 -58 -302 -13 -122 -8 -324 11 -456 16
-116 58 -269 107 -391 47 -115 88 -195 162 -310 227 -354 617 -636 1029 -743
83 -21 269 -53 323 -54 80 -3 285 -1 305 2 14 3 57 9 95 15 136 21 168 29 300
73 78 26 289 123 350 161 46 28 81 53 93 64 7 7 17 13 21 13 4 0 16 8 27 17
10 10 42 36 69 58 340 274 575 702 628 1144 14 114 15 369 2 446 -3 22 -8 54
-11 70 -12 75 -58 243 -89 325 -143 375 -394 679 -734 890 -82 51 -263 140
-284 140 -7 0 -17 4 -23 9 -13 13 -213 68 -314 87 -79 15 -460 31 -470 20z
m335 -637 c164 -23 367 -107 503 -209 403 -299 566 -807 411 -1281 -138 -421
-528 -733 -969 -775 -566 -54 -1076 302 -1219 851 -45 169 -47 375 -6 550 17
76 78 235 104 275 9 14 22 36 29 50 23 45 100 143 164 209 215 219 499 339
803 339 66 0 147 -4 180 -9z"/>
<path d="M4949 6925 c-2 -2 -28 -6 -56 -9 -78 -9 -199 -34 -278 -59 -38 -11
-72 -22 -75 -22 -3 -1 -14 -5 -25 -9 -220 -83 -425 -208 -585 -355 -59 -54
-73 -72 -65 -84 167 -246 206 -314 270 -474 l41 -103 71 83 c83 98 205 201
303 256 187 104 357 148 568 149 71 0 150 -4 177 -10 28 -5 61 -11 75 -14 14
-2 61 -16 105 -30 258 -84 478 -259 621 -494 39 -64 97 -189 110 -235 46 -175
46 -176 50 -330 5 -214 -27 -358 -120 -544 -233 -462 -761 -710 -1271 -594
-84 19 -250 83 -305 118 -22 14 -42 25 -46 25 -3 0 -43 29 -88 64 -76 60 -173
155 -210 208 -14 19 -18 21 -26 8 -5 -8 -10 -20 -10 -27 0 -20 -87 -221 -131
-301 -23 -42 -68 -117 -100 -167 l-59 -90 38 -35 c236 -222 568 -383 910 -440
158 -26 477 -22 622 9 554 117 999 458 1248 957 58 116 123 303 146 419 9 44
19 94 22 110 14 64 12 419 -2 510 -82 511 -355 941 -772 1219 -226 150 -459
238 -736 280 -80 12 -407 21 -417 11z"/>
<path d="M7850 6923 c-362 -52 -605 -147 -865 -337 -64 -47 -88 -66 -184 -155
l-33 -31 39 -53 c108 -145 211 -339 277 -521 6 -18 8 -17 29 9 195 250 462
412 752 455 85 12 328 5 405 -13 348 -79 625 -293 780 -600 92 -181 125 -330
123 -542 -3 -371 -200 -726 -516 -933 -112 -72 -270 -139 -376 -157 -19 -3
-37 -7 -40 -9 -11 -7 -156 -19 -222 -18 -335 3 -664 164 -877 429 l-30 38 -10
-25 c-6 -14 -27 -68 -47 -120 -48 -121 -110 -239 -190 -361 l-63 -96 73 -62
c292 -249 636 -395 1005 -427 59 -5 288 -5 320 0 14 3 49 7 79 10 294 33 652
192 896 399 346 292 575 721 622 1166 13 121 7 365 -11 456 -2 11 -7 40 -11
65 -20 133 -103 372 -165 480 -15 25 -29 53 -33 62 -3 10 -33 58 -66 107 -223
332 -533 569 -911 699 -103 35 -171 51 -350 81 -52 9 -346 12 -400 4z"/>
</g>
</svg>
