<svg id="eTVkUNAJxL71" xmlns="http://www.w3.org/2000/svg" xmlns:xlink="http://www.w3.org/1999/xlink" viewBox="0 0 58.494 8.774" shape-rendering="geometricPrecision" text-rendering="geometricPrecision"><path d="M38.776,1.634c-1.522,0-1.683.536-1.859.772-.349-.485-.899-.772-1.55-.772-.667,0-1.095.036-1.478.483v-.359h-1.253v5.307h1.253v-3.254c0-.647.482-1.109,1.16-1.109.616,0,1.037.493,1.037,1.191v3.172h1.221v-3.254c0-.647.473-1.109,1.161-1.109.605,0,1.026.493,1.026,1.191v3.172h1.222v-3.377c0-1.201-.832-2.054-1.94-2.054Z" clip-rule="evenodd" fill="#fff"/><path d="M30.019,1.758v3.357c-.083.564-.627,1.006-1.284,1.006s-1.119-.513-1.119-1.232v-3.131h-1.211v3.377c0,1.201.811,2.054,1.971,2.054.698,0,1.274-.134,1.643-.531v.407h1.252v-5.307h-1.252Z" clip-rule="evenodd" fill="#fff"/><path d="M23.099,1.634c-.698,0-1.214.088-1.642.514v-.39h-1.253v5.307h1.253v-3.357c.082-.564.626-1.006,1.283-1.006s1.119.513,1.119,1.232v3.131h1.211v-3.377c0-1.201-.811-2.054-1.971-2.054Z" clip-rule="evenodd" fill="#fff"/><path d="M16.272,7.189c1.54,0,2.844-1.273,2.844-2.783c0-1.509-1.304-2.772-2.844-2.772s-2.843,1.263-2.843,2.772c0,1.51,1.303,2.783,2.843,2.783Zm0-1.068c-.883,0-1.622-.78-1.622-1.715c0-.924.739-1.704,1.622-1.704.873,0,1.612.78,1.612,1.704c0,.935-.739,1.715-1.612,1.715Z" clip-rule="evenodd" fill="#fff"/><path d="M10.77,7.189c.842,0,1.55-.349,2.063-.894l-.842-.729c-.297.339-.749.555-1.211.555-.873,0-1.602-.78-1.602-1.715c0-.924.729-1.704,1.602-1.704.452,0,.893.216,1.18.534l.842-.739c-.503-.524-1.211-.863-2.012-.863-1.55,0-2.854,1.263-2.854,2.772c0,1.51,1.304,2.783,2.834,2.783Z" clip-rule="evenodd" fill="#fff"/><path d="M4.59,6.08c-.56,0-.968-.254-1.224-.622L6.157,4.373l.913-.347C6.925,2.537,5.81,1.634,4.528,1.634c-1.509,0-2.7,1.171-2.7,2.762c0,1.632,1.253,2.793,2.772,2.793.77,0,1.694-.329,2.156-.822l-.791-.821c-.298.308-.883.534-1.375.534ZM3.051,4.5c-.045-.862.457-1.757,1.528-1.757.553,0,.952.261,1.213.647L3.051,4.5Z" clip-rule="evenodd" fill="#fff"/><path d="M53.845,1.566c-.76,0-1.449.3-1.956.789.222.289.398.617.516.97.326-.441.85-.727,1.44-.727.988,0,1.789.801,1.789,1.789s-.801,1.789-1.789,1.789c-.59,0-1.114-.286-1.44-.727-.118.354-.294.681-.516.971.507.488,1.196.788,1.956.788c1.558,0,2.821-1.263,2.821-2.821s-1.263-2.821-2.821-2.821Z" clip-rule="evenodd" fill="#fff" fill-opacity="0.25098"/><path d="M49.235,1.566c-.759,0-1.449.3-1.956.788.222.29.398.618.517.971.325-.441.849-.727,1.439-.727.988,0,1.789.801,1.789,1.789s-.801,1.789-1.789,1.789c-.59,0-1.114-.286-1.439-.727-.119.354-.295.681-.517.971.507.488,1.197.788,1.956.788c1.558,0,2.821-1.263,2.821-2.821s-1.263-2.821-2.821-2.821Z" clip-rule="evenodd" fill="#fff" fill-opacity="0.501961"/><path d="M46.674,6.326c-.514.543-1.242.882-2.049.882-1.146,0-2.132-.683-2.574-1.665-.165-.349-.257-.734-.257-1.137c0-.215.026-.426.077-.628.278-1.265,1.406-2.212,2.754-2.212c1.106,0,2.063.636,2.525,1.562.211.385.331.82.331,1.278c0,.737-.31,1.417-.807,1.92Zm-2.037-.205c.873,0,1.612-.78,1.612-1.715c0-.924-.739-1.704-1.612-1.704-.883,0-1.622.78-1.622,1.704c0,.935.739,1.715,1.622,1.715Z" clip-rule="evenodd" fill="#fff"/></svg>