<?xml version="1.0" standalone="no"?>
<!DOCTYPE svg PUBLIC "-//W3C//DTD SVG 20010904//EN"
 "http://www.w3.org/TR/2001/REC-SVG-20010904/DTD/svg10.dtd">
<svg version="1.0" xmlns="http://www.w3.org/2000/svg"
 width="320.000000pt" height="320.000000pt" viewBox="0 0 320.000000 320.000000"
 preserveAspectRatio="xMidYMid meet">
<metadata>
Created by potrace 1.14, written by Peter Selinger 2001-2017
</metadata>
<g transform="translate(0.000000,320.000000) scale(0.100000,-0.100000)"
fill="#000000" stroke="none">
<path d="M618 2159 c-136 -21 -249 -80 -337 -176 -112 -121 -167 -295 -141
-443 48 -278 258 -463 536 -473 299 -11 558 234 566 533 7 299 -231 549 -536
564 -23 1 -62 -1 -88 -5z m157 -201 c142 -46 232 -139 263 -274 25 -111 -18
-244 -104 -324 -189 -174 -490 -104 -580 135 -13 33 -19 75 -19 125 1 195 158
347 360 347 28 0 64 -4 80 -9z"/>
<path d="M1546 2163 c-1 -1 -18 -4 -36 -7 -57 -8 -126 -32 -185 -65 -58 -33
-115 -79 -115 -92 0 -4 13 -27 29 -51 15 -24 36 -62 46 -85 l19 -42 48 45 c70
66 146 97 233 98 90 1 122 -6 185 -40 169 -92 234 -303 145 -473 -31 -60 -102
-127 -168 -157 -53 -25 -74 -29 -147 -28 -101 0 -172 28 -243 93 l-44 41 -46
-92 -47 -93 33 -27 c88 -76 223 -121 357 -120 421 3 681 466 465 827 -102 170
-269 263 -478 269 -26 1 -49 0 -51 -1z"/>
<path d="M2398 2150 c-86 -18 -183 -64 -242 -113 l-39 -33 42 -70 c23 -38 44
-79 47 -91 4 -13 8 -23 10 -23 2 0 20 17 38 38 35 38 116 89 158 98 235 52
445 -100 454 -327 6 -147 -67 -265 -206 -332 -57 -28 -75 -32 -150 -32 -101 0
-170 27 -244 95 l-45 41 -20 -47 c-12 -25 -21 -48 -21 -50 0 -3 -12 -22 -26
-44 l-27 -40 34 -30 c43 -39 158 -94 229 -111 381 -88 743 258 665 635 -64
309 -354 501 -657 436z"/>
</g>
</svg>
